<svg width="300" height="500" viewBox="0 0 300 500" xmlns="http://www.w3.org/2000/svg">
  <defs>
    <linearGradient id="phoneGradient" x1="0%" y1="0%" x2="100%" y2="100%">
      <stop offset="0%" stop-color="#3B82F6" stop-opacity="0.8"/>
      <stop offset="100%" stop-color="#4F46E5" stop-opacity="0.9"/>
    </linearGradient>
    <linearGradient id="screenGradient" x1="0%" y1="0%" x2="100%" y2="100%">
      <stop offset="0%" stop-color="#1E293B" stop-opacity="1"/>
      <stop offset="100%" stop-color="#0F172A" stop-opacity="1"/>
    </linearGradient>
    <filter id="glow" x="-20%" y="-20%" width="140%" height="140%">
      <feGaussianBlur stdDeviation="8" result="blur"/>
      <feComposite in="SourceGraphic" in2="blur" operator="over"/>
    </filter>
  </defs>
  
  <!-- Phone Body with 3D effect -->
  <g transform="translate(150, 250) rotate(-10) translate(-150, -250)">
    <!-- Phone Shadow -->
    <rect x="75" y="100" width="150" height="300" rx="20" ry="20" fill="#000000" opacity="0.2" transform="translate(10, 10)"/>
    
    <!-- Phone Body -->
    <rect x="75" y="100" width="150" height="300" rx="20" ry="20" fill="url(#phoneGradient)" stroke="#6366F1" stroke-width="2"/>
    
    <!-- Phone Screen -->
    <rect x="85" y="120" width="130" height="260" rx="10" ry="10" fill="url(#screenGradient)"/>
    
    <!-- Phone Button -->
    <circle cx="150" cy="390" r="10" fill="#6366F1" opacity="0.8"/>
    
    <!-- Phone Camera -->
    <circle cx="150" cy="115" r="5" fill="#6366F1" opacity="0.8"/>
    
    <!-- Phone Speaker -->
    <rect x="130" y="115" width="40" height="3" rx="1.5" ry="1.5" fill="#6366F1" opacity="0.8"/>
    
    <!-- Screen Content: Voice Waves -->
    <g transform="translate(150, 220)">
      <!-- Central Circle -->
      <circle cx="0" cy="0" r="25" fill="#3B82F6" opacity="0.7" filter="url(#glow)">
        <animate attributeName="r" values="25;30;25" dur="2s" repeatCount="indefinite"/>
        <animate attributeName="opacity" values="0.7;0.9;0.7" dur="2s" repeatCount="indefinite"/>
      </circle>
      
      <!-- Microphone Icon -->
      <path d="M-7,-5 L-7,5 C-7,8.3 -4.3,11 -1,11 L1,11 C4.3,11 7,8.3 7,5 L7,-5 C7,-8.3 4.3,-11 1,-11 L-1,-11 C-4.3,-11 -7,-8.3 -7,-5 Z M-12,0 L-12,5 C-12,11.1 -7.1,16 -1,16 L1,16 C7.1,16 12,11.1 12,5 L12,0 M0,16 L0,22 M-5,22 L5,22" 
            stroke="#FFFFFF" stroke-width="2" fill="none" stroke-linecap="round" stroke-linejoin="round"/>
      
      <!-- Animated Voice Waves -->
      <g opacity="0.6">
        <!-- Wave 1 -->
        <circle cx="0" cy="0" r="35" fill="none" stroke="#60A5FA" stroke-width="2">
          <animate attributeName="r" values="35;45;35" dur="3s" repeatCount="indefinite"/>
          <animate attributeName="opacity" values="0.6;0.2;0.6" dur="3s" repeatCount="indefinite"/>
        </circle>
        
        <!-- Wave 2 -->
        <circle cx="0" cy="0" r="55" fill="none" stroke="#60A5FA" stroke-width="1.5">
          <animate attributeName="r" values="55;65;55" dur="3s" repeatCount="indefinite" begin="0.5s"/>
          <animate attributeName="opacity" values="0.4;0.1;0.4" dur="3s" repeatCount="indefinite" begin="0.5s"/>
        </circle>
        
        <!-- Wave 3 -->
        <circle cx="0" cy="0" r="75" fill="none" stroke="#60A5FA" stroke-width="1">
          <animate attributeName="r" values="75;85;75" dur="3s" repeatCount="indefinite" begin="1s"/>
          <animate attributeName="opacity" values="0.2;0.05;0.2" dur="3s" repeatCount="indefinite" begin="1s"/>
        </circle>
      </g>
    </g>
    
    <!-- Animated Dots at bottom of screen -->
    <g transform="translate(150, 350)">
      <circle cx="-15" cy="0" r="3" fill="#60A5FA">
        <animate attributeName="opacity" values="0.2;1;0.2" dur="1.5s" repeatCount="indefinite"/>
      </circle>
      <circle cx="0" cy="0" r="3" fill="#60A5FA">
        <animate attributeName="opacity" values="0.2;1;0.2" dur="1.5s" repeatCount="indefinite" begin="0.3s"/>
      </circle>
      <circle cx="15" cy="0" r="3" fill="#60A5FA">
        <animate attributeName="opacity" values="0.2;1;0.2" dur="1.5s" repeatCount="indefinite" begin="0.6s"/>
      </circle>
    </g>
  </g>
  
  <!-- Floating Particles -->
  <g>
    <circle cx="50" cy="150" r="3" fill="#60A5FA" opacity="0.6">
      <animate attributeName="cy" values="150;140;150" dur="3s" repeatCount="indefinite"/>
      <animate attributeName="opacity" values="0.6;0.3;0.6" dur="3s" repeatCount="indefinite"/>
    </circle>
    <circle cx="250" cy="200" r="2" fill="#818CF8" opacity="0.5">
      <animate attributeName="cy" values="200;190;200" dur="2.5s" repeatCount="indefinite"/>
      <animate attributeName="opacity" values="0.5;0.2;0.5" dur="2.5s" repeatCount="indefinite"/>
    </circle>
    <circle cx="70" cy="350" r="4" fill="#60A5FA" opacity="0.4">
      <animate attributeName="cy" values="350;340;350" dur="4s" repeatCount="indefinite"/>
      <animate attributeName="opacity" values="0.4;0.1;0.4" dur="4s" repeatCount="indefinite"/>
    </circle>
    <circle cx="230" cy="300" r="3" fill="#818CF8" opacity="0.5">
      <animate attributeName="cy" values="300;290;300" dur="3.5s" repeatCount="indefinite"/>
      <animate attributeName="opacity" values="0.5;0.2;0.5" dur="3.5s" repeatCount="indefinite"/>
    </circle>
  </g>
</svg>