<svg width="1440" height="400" viewBox="0 0 1440 400" xmlns="http://www.w3.org/2000/svg">
  <defs>
    <linearGradient id="gradient1" x1="0%" y1="0%" x2="100%" y2="0%">
      <stop offset="0%" stop-color="#3B82F6" stop-opacity="0.2"/>
      <stop offset="50%" stop-color="#6366F1" stop-opacity="0.3"/>
      <stop offset="100%" stop-color="#4F46E5" stop-opacity="0.2"/>
    </linearGradient>
    <linearGradient id="gradient2" x1="0%" y1="0%" x2="100%" y2="0%">
      <stop offset="0%" stop-color="#3B82F6" stop-opacity="0.3"/>
      <stop offset="50%" stop-color="#8B5CF6" stop-opacity="0.4"/>
      <stop offset="100%" stop-color="#6366F1" stop-opacity="0.3"/>
    </linearGradient>
  </defs>
  
  <!-- Wave 1 -->
  <path fill="url(#gradient1)" d="M0,128L48,133.3C96,139,192,149,288,154.7C384,160,480,160,576,138.7C672,117,768,75,864,80C960,85,1056,139,1152,149.3C1248,160,1344,128,1392,112L1440,96L1440,320L1392,320C1344,320,1248,320,1152,320C1056,320,960,320,864,320C768,320,672,320,576,320C480,320,384,320,288,320C192,320,96,320,48,320L0,320Z">
    <animate attributeName="d" dur="20s" repeatCount="indefinite" values="M0,128L48,133.3C96,139,192,149,288,154.7C384,160,480,160,576,138.7C672,117,768,75,864,80C960,85,1056,139,1152,149.3C1248,160,1344,128,1392,112L1440,96L1440,320L1392,320C1344,320,1248,320,1152,320C1056,320,960,320,864,320C768,320,672,320,576,320C480,320,384,320,288,320C192,320,96,320,48,320L0,320Z;
                                                M0,160L48,149.3C96,139,192,117,288,128C384,139,480,181,576,186.7C672,192,768,160,864,154.7C960,149,1056,171,1152,176C1248,181,1344,171,1392,165.3L1440,160L1440,320L1392,320C1344,320,1248,320,1152,320C1056,320,960,320,864,320C768,320,672,320,576,320C480,320,384,320,288,320C192,320,96,320,48,320L0,320Z;
                                                M0,128L48,133.3C96,139,192,149,288,154.7C384,160,480,160,576,138.7C672,117,768,75,864,80C960,85,1056,139,1152,149.3C1248,160,1344,128,1392,112L1440,96L1440,320L1392,320C1344,320,1248,320,1152,320C1056,320,960,320,864,320C768,320,672,320,576,320C480,320,384,320,288,320C192,320,96,320,48,320L0,320Z"/>
  </path>
  
  <!-- Wave 2 -->
  <path fill="url(#gradient2)" d="M0,224L48,213.3C96,203,192,181,288,186.7C384,192,480,224,576,229.3C672,235,768,213,864,202.7C960,192,1056,192,1152,176C1248,160,1344,128,1392,112L1440,96L1440,320L1392,320C1344,320,1248,320,1152,320C1056,320,960,320,864,320C768,320,672,320,576,320C480,320,384,320,288,320C192,320,96,320,48,320L0,320Z">
    <animate attributeName="d" dur="15s" repeatCount="indefinite" values="M0,224L48,213.3C96,203,192,181,288,186.7C384,192,480,224,576,229.3C672,235,768,213,864,202.7C960,192,1056,192,1152,176C1248,160,1344,128,1392,112L1440,96L1440,320L1392,320C1344,320,1248,320,1152,320C1056,320,960,320,864,320C768,320,672,320,576,320C480,320,384,320,288,320C192,320,96,320,48,320L0,320Z;
                                                M0,192L48,197.3C96,203,192,213,288,229.3C384,245,480,267,576,266.7C672,267,768,245,864,224C960,203,1056,181,1152,186.7C1248,192,1344,224,1392,240L1440,256L1440,320L1392,320C1344,320,1248,320,1152,320C1056,320,960,320,864,320C768,320,672,320,576,320C480,320,384,320,288,320C192,320,96,320,48,320L0,320Z;
                                                M0,224L48,213.3C96,203,192,181,288,186.7C384,192,480,224,576,229.3C672,235,768,213,864,202.7C960,192,1056,192,1152,176C1248,160,1344,128,1392,112L1440,96L1440,320L1392,320C1344,320,1248,320,1152,320C1056,320,960,320,864,320C768,320,672,320,576,320C480,320,384,320,288,320C192,320,96,320,48,320L0,320Z"/>
  </path>
  
  <!-- Particles -->
  <g>
    <circle cx="200" cy="150" r="3" fill="#ffffff" opacity="0.5">
      <animate attributeName="cy" values="150;130;150" dur="4s" repeatCount="indefinite" />
    </circle>
    <circle cx="400" cy="180" r="2" fill="#ffffff" opacity="0.3">
      <animate attributeName="cy" values="180;160;180" dur="3s" repeatCount="indefinite" />
    </circle>
    <circle cx="600" cy="120" r="2.5" fill="#ffffff" opacity="0.4">
      <animate attributeName="cy" values="120;100;120" dur="5s" repeatCount="indefinite" />
    </circle>
    <circle cx="800" cy="170" r="3" fill="#ffffff" opacity="0.5">
      <animate attributeName="cy" values="170;150;170" dur="4.5s" repeatCount="indefinite" />
    </circle>
    <circle cx="1000" cy="140" r="2" fill="#ffffff" opacity="0.3">
      <animate attributeName="cy" values="140;120;140" dur="3.5s" repeatCount="indefinite" />
    </circle>
    <circle cx="1200" cy="160" r="2.5" fill="#ffffff" opacity="0.4">
      <animate attributeName="cy" values="160;140;160" dur="5.5s" repeatCount="indefinite" />
    </circle>
  </g>
</svg>